<?xml version="1.0" standalone="no"?>
<!DOCTYPE svg PUBLIC "-//W3C//DTD SVG 20010904//EN"
 "http://www.w3.org/TR/2001/REC-SVG-20010904/DTD/svg10.dtd">
<svg version="1.0" xmlns="http://www.w3.org/2000/svg"
 width="240.000000pt" height="240.000000pt" viewBox="0 0 240.000000 240.000000"
 preserveAspectRatio="xMidYMid meet">
<metadata>
Created by potrace 1.11, written by Peter Selinger 2001-2013
</metadata>
<g transform="translate(0.000000,240.000000) scale(0.100000,-0.100000)"
fill="#000000" stroke="none">
<path d="M667 2253 c-3 -16 -11 -41 -18 -58 -7 -16 -13 -39 -14 -50 -1 -11 -7
-30 -14 -42 -6 -13 -16 -98 -21 -190 -5 -103 -13 -169 -19 -171 -6 -2 -8 -8
-5 -13 3 -6 0 -16 -6 -24 -7 -8 -9 -15 -5 -15 4 0 3 -6 -2 -12 -6 -7 -16 -35
-23 -63 -7 -27 -17 -56 -23 -62 -5 -7 -6 -13 -2 -13 4 0 3 -6 -2 -12 -6 -7
-18 -43 -29 -80 -10 -38 -22 -68 -27 -68 -4 0 -5 -5 -2 -10 4 -6 2 -16 -3 -23
-5 -7 -17 -39 -26 -72 -9 -33 -19 -66 -21 -73 -3 -7 -3 -14 -2 -16 1 -1 -4
-10 -12 -19 -7 -10 -10 -17 -6 -17 4 0 3 -6 -2 -12 -6 -7 -16 -37 -24 -65 -7
-29 -17 -53 -21 -53 -5 0 -6 -5 -3 -10 4 -6 1 -17 -5 -25 -10 -12 14 -40 129
-155 77 -77 144 -140 147 -140 4 0 94 -87 200 -192 106 -106 238 -235 294
-287 l101 -94 107 103 c59 56 198 192 309 301 110 110 204 199 208 199 3 0 63
56 132 126 103 103 122 128 113 140 -7 7 -9 14 -5 14 4 0 3 6 -2 13 -6 6 -16
36 -24 65 -7 28 -17 52 -21 52 -5 0 -6 5 -3 10 3 5 3 16 -2 23 -4 6 -8 14 -9
17 0 3 -4 12 -7 20 -3 8 -14 42 -23 75 -9 33 -21 65 -26 72 -5 7 -7 17 -3 23
3 5 2 10 -3 10 -5 0 -15 25 -22 55 -7 30 -17 55 -22 55 -5 0 -6 5 -3 10 4 6 1
17 -5 25 -7 8 -9 15 -5 15 4 0 3 6 -2 13 -6 6 -16 35 -23 62 -7 28 -17 56 -23
63 -5 6 -6 12 -2 12 4 0 2 7 -5 15 -7 8 -9 15 -5 15 4 0 2 7 -5 15 -8 10 -16
76 -21 182 -5 95 -14 169 -19 171 -6 2 -7 8 -4 13 3 6 0 16 -6 24 -7 8 -9 15
-5 15 4 0 3 6 -2 13 -5 6 -16 38 -23 70 -8 34 -18 57 -27 57 -7 0 -13 -4 -13
-10 0 -5 -4 -10 -10 -10 -5 0 -18 -7 -27 -15 -67 -58 -153 -125 -153 -118 0 4
-7 -3 -16 -15 -8 -12 -20 -22 -26 -22 -6 0 -21 -10 -34 -22 -86 -83 -99 -88
-231 -88 -120 0 -147 6 -186 42 -14 13 -40 34 -57 48 -17 14 -39 33 -50 43
-11 9 -20 14 -20 11 0 -3 -29 19 -63 48 -148 123 -151 125 -160 81z m263 -334
c47 -7 90 -15 95 -19 6 -4 22 -6 38 -5 15 1 27 -1 27 -5 0 -4 10 -6 23 -6 12
1 28 -2 35 -7 7 -5 34 -7 60 -3 26 4 59 8 75 8 15 1 27 5 27 9 0 5 16 6 35 5
19 -2 35 0 35 4 0 4 48 13 106 20 l106 13 51 -55 c94 -101 126 -138 120 -138
-3 0 -1 -6 5 -12 6 -7 10 -15 11 -18 0 -3 2 -12 4 -20 7 -21 38 -132 42 -150
2 -8 4 -16 5 -17 2 -2 3 -6 5 -10 1 -5 5 -16 9 -25 5 -10 6 -25 2 -33 -3 -8
-2 -15 2 -15 7 0 16 -28 37 -110 1 -3 7 -18 13 -33 7 -16 12 -34 12 -41 0 -8
7 -33 16 -57 9 -24 17 -51 19 -59 1 -8 5 -22 9 -30 3 -8 13 -40 21 -70 l14
-55 -42 -37 c-23 -20 -57 -51 -75 -67 -18 -17 -36 -31 -39 -31 -4 0 -23 -16
-42 -35 -57 -54 -221 -197 -221 -191 0 5 -38 -29 -136 -124 -17 -17 -34 -30
-38 -30 -4 0 -48 -36 -98 -80 -50 -44 -95 -80 -101 -80 -5 0 -29 17 -52 38
-23 20 -68 60 -100 87 -31 28 -69 62 -83 78 -15 15 -31 27 -36 27 -5 0 -23 14
-40 30 -58 56 -298 265 -309 269 -7 2 -28 21 -47 43 -20 21 -39 38 -43 38 -4
0 -23 15 -42 33 -33 31 -34 34 -24 72 6 22 14 47 17 55 3 8 6 18 7 23 2 4 3 8
5 10 1 1 3 10 5 19 2 9 10 39 18 65 8 26 19 62 23 78 10 41 11 45 14 48 1 1 3
9 6 17 2 8 13 47 23 85 11 39 21 71 22 73 1 1 2 5 3 10 1 4 5 13 10 20 4 7 5
16 2 19 -3 3 -2 11 3 17 4 6 14 34 20 61 7 28 16 57 19 65 7 19 9 28 11 40 0
5 17 25 38 45 20 19 33 35 29 35 -4 0 19 27 51 60 32 33 67 60 78 60 11 0 58
-5 105 -11z"/>
<path d="M792 1462 c-3 -8 -1 -22 5 -31 5 -9 8 -26 7 -38 -3 -17 1 -23 14 -23
10 0 22 -3 26 -7 4 -5 16 -9 27 -9 10 -1 20 -2 22 -4 3 -3 34 -8 100 -16 31
-4 58 -11 58 -15 2 -13 5 -22 12 -39 30 -67 34 -109 20 -177 -8 -37 -17 -75
-21 -83 -3 -8 -7 -22 -8 -30 -7 -34 -10 -46 -19 -60 -13 -22 -8 -143 7 -155
14 -11 68 -81 68 -88 0 -13 -72 3 -95 21 -15 12 -25 22 -22 22 4 0 -5 16 -18
36 -14 20 -25 47 -25 59 0 12 -3 25 -7 29 -4 3 -8 13 -10 21 -2 8 -4 22 -6 30
-2 8 -6 18 -10 21 -4 4 -7 15 -7 24 0 16 -102 130 -117 130 -4 0 -20 12 -35
27 -17 16 -32 24 -36 18 -6 -9 -23 -14 -59 -17 -7 -1 -13 -5 -13 -10 0 -5 -4
-7 -8 -4 -10 6 -9 42 1 52 4 4 7 16 7 26 0 23 -33 24 -55 2 -30 -30 -27 -7 9
67 19 41 31 78 26 83 -5 4 -16 -6 -25 -24 -10 -18 -21 -38 -26 -44 -39 -48
-99 -136 -99 -145 0 -6 -4 -11 -10 -11 -5 0 -10 -7 -10 -15 0 -8 -5 -15 -11
-15 -5 0 -8 -4 -4 -9 3 -6 19 -3 38 6 78 38 87 42 92 32 4 -5 2 -9 -3 -9 -5 0
-9 -18 -9 -40 0 -32 3 -39 16 -36 118 34 158 39 169 22 4 -6 32 -31 61 -54 30
-24 56 -48 57 -55 4 -26 46 -143 56 -154 6 -7 7 -13 4 -13 -4 0 4 -15 18 -33
15 -19 26 -39 26 -45 0 -6 16 -16 35 -22 19 -6 36 -17 36 -23 3 -28 5 -33 20
-55 9 -13 20 -22 25 -20 5 1 29 -9 54 -22 25 -13 52 -24 60 -23 20 0 108 41
115 53 4 6 10 8 14 6 11 -7 28 26 25 48 -2 13 9 23 37 35 21 9 39 20 39 25 0
5 11 24 26 43 14 18 22 38 19 43 -3 6 -1 10 4 10 6 0 11 7 11 16 0 8 5 25 12
37 12 22 18 42 20 65 1 6 5 12 10 12 5 0 8 6 6 13 -2 7 14 28 35 46 20 18 37
30 37 27 0 -3 13 8 28 24 16 16 32 27 35 23 4 -3 7 -1 7 7 0 9 3 10 14 1 8 -6
18 -11 22 -10 5 1 16 0 24 -4 30 -11 83 -27 91 -27 4 0 6 22 4 49 l-4 50 27
-13 c15 -7 42 -20 59 -29 19 -9 35 -12 38 -6 4 5 1 9 -6 9 -7 0 -10 3 -6 6 3
3 2 11 -4 18 -38 46 -99 136 -99 145 0 6 -4 11 -10 11 -5 0 -19 18 -30 40 -19
38 -41 55 -36 28 3 -15 48 -110 56 -118 8 -8 12 -40 5 -40 -4 0 -13 7 -21 15
-22 22 -54 19 -54 -4 0 -11 4 -22 8 -25 10 -6 9 -42 -1 -52 -4 -4 -7 -2 -7 5
0 7 -7 11 -15 8 -8 -4 -17 -2 -20 4 -4 5 -10 7 -15 4 -5 -3 -11 -1 -15 5 -13
20 -18 16 -142 -101 -29 -28 -53 -58 -53 -68 0 -10 -3 -21 -7 -25 -4 -3 -8
-13 -10 -21 -2 -8 -4 -22 -6 -30 -2 -8 -6 -18 -10 -21 -4 -4 -7 -16 -7 -26 0
-59 -78 -143 -134 -145 l-36 -1 25 32 c14 17 34 40 45 52 16 15 21 35 22 87 2
39 -2 71 -9 78 -6 6 -9 18 -6 25 3 8 1 14 -5 14 -5 0 -9 10 -8 23 1 12 -1 24
-4 27 -4 3 -13 38 -22 78 -16 72 -11 116 19 182 4 8 7 22 7 30 1 14 29 21 131
34 17 2 31 5 33 6 1 1 11 3 21 4 11 0 23 4 27 9 4 4 16 7 26 7 13 0 17 6 14
23 -2 12 1 27 6 34 5 7 8 20 6 30 -3 14 -15 18 -69 19 l-67 2 -76 -85 c-42
-46 -76 -90 -76 -98 0 -7 -4 -15 -8 -17 -4 -1 -20 -26 -34 -54 -26 -50 -26
-51 -12 -120 8 -38 16 -78 18 -89 2 -11 5 -21 6 -22 1 -2 3 -6 5 -10 1 -5 11
-30 23 -56 26 -58 26 -58 7 -51 -8 4 -15 2 -15 -4 0 -6 -8 -9 -17 -8 -10 2
-21 -1 -24 -6 -13 -20 -84 -20 -141 0 -31 11 -59 17 -62 14 -14 -13 -7 6 35
103 7 17 14 37 16 45 1 8 9 47 17 85 12 63 12 73 -2 100 -9 17 -15 33 -14 38
1 4 -3 7 -8 7 -6 0 -10 7 -10 15 0 8 -4 15 -10 15 -5 0 -10 7 -10 15 0 8 -33
52 -74 98 l-74 83 -67 0 c-49 0 -69 -4 -73 -14z m467 -804 c42 -9 51 -15 51
-33 0 -17 -9 -25 -42 -35 -24 -7 -45 -11 -47 -10 -2 1 -8 -4 -12 -12 -8 -11
-10 -11 -18 0 -4 8 -12 13 -17 13 -5 0 -26 5 -46 11 -29 9 -38 16 -38 34 0 18
8 23 48 32 65 13 64 13 121 0z"/>
</g>
</svg>
